{"title":"Joyû to shijin aka The Actress and the Poet (1395) - TVRip","uid":13147790,"size":1130058980,"categoryP":"video","categoryS":"movies","magnet":"?xt=urn:btih:8eaa0dac00e6126b54169a6b010ceaec1ce00963&amp;dn=Joy%26ucirc%3B+to+shijin+aka+The+Actress+and+the+Poet+%281395%29+-+TVRip&amp;tr=udp%3A%2F%2Ftracker.leechers-paradise.org%3A6969&amp;tr=udp%3A%2F%2Fzer0day.ch%3A1337&amp;tr=udp%3A%2F%2Fopen.demonii.com%3A1337&amp;tr=udp%3A%2F%2Ftracker.coppersurfer.tk%3A6969&amp;tr=udp%3A%2F%2Fexodus.desync.com%3A6969","seeders":1,"leechers":0,"uploader":"wesleybl","files":2,"time":1452036052,"description":"Mikio Naruse - Joyû to shijin aka The Actress and the Poet (1935)\r\n\r\n \nhttp://www.imdb.com/title/tt0026551\r\n\r\n\r\nVideo\r\nID                                       : 0\r\nFormat                                   : MPEG-4 Visual\r\nFormat profile                           : Advanced   \r\nFormat settings, BVOP                    : No\r\nFormat settings, QPel                    : No\r\nFormat settings, GMC                     : No warppoints\r\nFormat settings, Matrix                  : Custom\r\nCodec ID                                 : XVID\r\nCodec ID/Hint                            : XviD\r\nDuration                                 : 1h 13mn\r\nBit rate                                 : 1 899 Kbps\r\nWidth                                    : 676 pixels\r\nHeight                                   : 512 pixels\r\nDisplay aspect ratio                     : 1.375\r\nOriginal display aspect ratio            : 4:3\r\nFrame rate                               : 23.976 fps\r\nColor space                              : YUV\r\nChroma subsampling                       : 4:2:0\r\nBit depth                                : 8 bits\r\nScan type                                : Progressive\r\nCompression mode                         : Lossy\r\nBits/(Pixel*Frame)                       : 0.229\r\nStream size                              : 1 005 MiB (93%)\r\nWriting library                          : XviD 1.2.1 (UTC 2008-12-04)\r\n\r\nAudio\r\nID                                       : 1\r\nFormat                                   : MPEG Audio\r\nFormat version                           : Version 1\r\nFormat profile                           : Layer 3\r\nMode                                     : Joint stereo\r\nMode extension                           : MS Stereo\r\nCodec ID                                 : 55\r\nCodec ID/Hint                            : MP3\r\nDuration                                 : 1h 13mn\r\nBit rate mode                            : Constant\r\nBit rate                                 : 128 Kbps\r\nChannel(s)                               : 2 channels\r\nSampling rate                            : 48.0 KHz\r\nCompression mode                         : Lossy\r\nStream size                              : 67.7 MiB (6%)\r\nAlignment                                : Aligned on interleaves\r\nInterleave, duration                     : 42 ms (1.00 video frame)\r\nInterleave, preload duration             : 504 ms\r\nWriting library                          : LAME3.98r\r\nEncoding settings                        : -m j -V 4 -q 2 -lowpass 17 -b 128","torrent":{"xt":"urn:btih:8eaa0dac00e6126b54169a6b010ceaec1ce00963","amp;dn":"Joy%26ucirc%3B+to+shijin+aka+The+Actress+and+the+Poet+%281395%29+-+TVRip","amp;tr":["udp%3A%2F%2Ftracker.leechers-paradise.org%3A6969","udp%3A%2F%2Fzer0day.ch%3A1337","udp%3A%2F%2Fopen.demonii.com%3A1337","udp%3A%2F%2Ftracker.coppersurfer.tk%3A6969","udp%3A%2F%2Fexodus.desync.com%3A6969"],"infoHash":"8eaa0dac00e6126b54169a6b010ceaec1ce00963","infoHashBuffer":{"type":"Buffer","data":[142,170,13,172,0,230,18,107,84,22,154,107,1,12,234,236,28,224,9,99]},"announce":[],"urlList":[]}}